<mxfile host="app.diagrams.net" modified="2023-06-26T11:13:47.633Z" agent="Mozilla/5.0 (Windows NT 10.0; Win64; x64) AppleWebKit/537.36 (KHTML, like Gecko) Chrome/114.0.0.0 Safari/537.36 Edg/114.0.1823.51" etag="cld2UCu9vEGAkbYz5I53" version="21.5.0" type="device">
  <diagram id="C5RBs43oDa-KdzZeNtuy" name="Page-1">
    <mxGraphModel dx="996" dy="573" grid="1" gridSize="10" guides="1" tooltips="1" connect="1" arrows="1" fold="1" page="1" pageScale="1" pageWidth="827" pageHeight="1169" math="0" shadow="0">
      <root>
        <mxCell id="WIyWlLk6GJQsqaUBKTNV-0" />
        <mxCell id="WIyWlLk6GJQsqaUBKTNV-1" parent="WIyWlLk6GJQsqaUBKTNV-0" />
        <mxCell id="xqIVgzkzp9VQpXWk9DUl-1" value="&lt;p style=&quot;margin: 0px ; margin-top: 4px ; text-align: center&quot;&gt;&lt;i&gt;&amp;lt;&amp;lt;Interface&amp;gt;&amp;gt;&lt;br&gt;&lt;b&gt;IOperacao&lt;/b&gt;&lt;/i&gt;&lt;/p&gt;&lt;hr size=&quot;1&quot;&gt;&lt;p style=&quot;margin: 0px ; margin-left: 4px&quot;&gt;&lt;span&gt;&lt;i&gt;+ calcule(double a, double b): double&lt;/i&gt;&lt;/span&gt;&lt;br&gt;&lt;/p&gt;" style="verticalAlign=top;align=left;overflow=fill;fontSize=12;fontFamily=Helvetica;html=1;" parent="WIyWlLk6GJQsqaUBKTNV-1" vertex="1">
          <mxGeometry x="359" y="320" width="211" height="70" as="geometry" />
        </mxCell>
        <mxCell id="xqIVgzkzp9VQpXWk9DUl-2" value="" style="endArrow=block;dashed=1;endFill=0;endSize=12;html=1;rounded=0;exitX=1;exitY=0.5;exitDx=0;exitDy=0;" parent="WIyWlLk6GJQsqaUBKTNV-1" source="xqIVgzkzp9VQpXWk9DUl-1" target="xqIVgzkzp9VQpXWk9DUl-18" edge="1">
          <mxGeometry width="160" relative="1" as="geometry">
            <mxPoint x="549" y="420" as="sourcePoint" />
            <mxPoint x="659" y="372.33333333333337" as="targetPoint" />
          </mxGeometry>
        </mxCell>
        <mxCell id="xqIVgzkzp9VQpXWk9DUl-7" value="" style="endArrow=block;dashed=1;endFill=0;endSize=12;html=1;rounded=0;exitX=0.795;exitY=1.031;exitDx=0;exitDy=0;exitPerimeter=0;entryX=0.44;entryY=-0.02;entryDx=0;entryDy=0;entryPerimeter=0;" parent="WIyWlLk6GJQsqaUBKTNV-1" source="xqIVgzkzp9VQpXWk9DUl-1" target="xqIVgzkzp9VQpXWk9DUl-17" edge="1">
          <mxGeometry width="160" relative="1" as="geometry">
            <mxPoint x="459" y="470" as="sourcePoint" />
            <mxPoint x="659" y="471.5" as="targetPoint" />
          </mxGeometry>
        </mxCell>
        <mxCell id="xqIVgzkzp9VQpXWk9DUl-17" value="&lt;p style=&quot;margin: 0px ; margin-top: 4px ; text-align: center&quot;&gt;&lt;i&gt;&amp;lt;&amp;lt;&lt;/i&gt;&lt;i style=&quot;border-color: var(--border-color);&quot;&gt;@ApplicationScoped&lt;/i&gt;&lt;i&gt;&amp;gt;&amp;gt;&lt;/i&gt;&lt;br&gt;&lt;b&gt;Multiplicacao&lt;/b&gt;&lt;/p&gt;&lt;hr size=&quot;1&quot;&gt;&lt;p style=&quot;margin: 0px ; margin-left: 4px&quot;&gt;&lt;/p&gt;&lt;p style=&quot;margin: 0px ; margin-left: 4px&quot;&gt;&lt;i style=&quot;border-color: var(--border-color);&quot;&gt;+ calcule(double a, double b): double&lt;/i&gt;&lt;br&gt;&lt;/p&gt;" style="verticalAlign=top;align=left;overflow=fill;fontSize=12;fontFamily=Helvetica;html=1;" parent="WIyWlLk6GJQsqaUBKTNV-1" vertex="1">
          <mxGeometry x="480" y="510" width="210" height="70" as="geometry" />
        </mxCell>
        <mxCell id="xqIVgzkzp9VQpXWk9DUl-18" value="&lt;p style=&quot;margin: 0px ; margin-top: 4px ; text-align: center&quot;&gt;&lt;i&gt;&amp;lt;&amp;lt;@ApplicationScoped&amp;gt;&amp;gt;&lt;/i&gt;&lt;br&gt;&lt;b&gt;Adicao&lt;/b&gt;&lt;/p&gt;&lt;hr size=&quot;1&quot;&gt;&lt;p style=&quot;margin: 0px ; margin-left: 4px&quot;&gt;&lt;/p&gt;&lt;p style=&quot;margin: 0px ; margin-left: 4px&quot;&gt;&lt;i style=&quot;border-color: var(--border-color);&quot;&gt;+ calcule(double a, double b): double&lt;/i&gt;&lt;br&gt;&lt;/p&gt;" style="verticalAlign=top;align=left;overflow=fill;fontSize=12;fontFamily=Helvetica;html=1;" parent="WIyWlLk6GJQsqaUBKTNV-1" vertex="1">
          <mxGeometry x="640" y="320" width="211" height="70" as="geometry" />
        </mxCell>
        <mxCell id="xqIVgzkzp9VQpXWk9DUl-19" value="&lt;p style=&quot;margin: 0px ; margin-top: 4px ; text-align: center&quot;&gt;&lt;i&gt;&amp;lt;&amp;lt;&lt;/i&gt;&lt;i style=&quot;border-color: var(--border-color);&quot;&gt;@ApplicationScoped&lt;/i&gt;&lt;i&gt;&amp;gt;&amp;gt;&lt;/i&gt;&lt;br&gt;&lt;b&gt;Divisao&lt;/b&gt;&lt;/p&gt;&lt;hr size=&quot;1&quot;&gt;&lt;p style=&quot;margin: 0px ; margin-left: 4px&quot;&gt;&lt;/p&gt;&lt;p style=&quot;margin: 0px ; margin-left: 4px&quot;&gt;&lt;i style=&quot;border-color: var(--border-color);&quot;&gt;+ calcule(double a, double b): double&lt;/i&gt;&lt;br&gt;&lt;/p&gt;" style="verticalAlign=top;align=left;overflow=fill;fontSize=12;fontFamily=Helvetica;html=1;" parent="WIyWlLk6GJQsqaUBKTNV-1" vertex="1">
          <mxGeometry x="260" y="510" width="210" height="70" as="geometry" />
        </mxCell>
        <mxCell id="xqIVgzkzp9VQpXWk9DUl-20" value="" style="endArrow=block;dashed=1;endFill=0;endSize=12;html=1;rounded=0;exitX=0.25;exitY=1;exitDx=0;exitDy=0;" parent="WIyWlLk6GJQsqaUBKTNV-1" source="xqIVgzkzp9VQpXWk9DUl-1" target="xqIVgzkzp9VQpXWk9DUl-19" edge="1">
          <mxGeometry width="160" relative="1" as="geometry">
            <mxPoint x="540.19" y="390.62" as="sourcePoint" />
            <mxPoint x="603.8" y="508.6" as="targetPoint" />
          </mxGeometry>
        </mxCell>
        <mxCell id="xqIVgzkzp9VQpXWk9DUl-21" value="&lt;p style=&quot;margin: 0px ; margin-top: 4px ; text-align: center&quot;&gt;&lt;i&gt;&amp;lt;&amp;lt;Enumeration&amp;gt;&amp;gt;&lt;/i&gt;&lt;br&gt;&lt;b&gt;OperacaoEnum&lt;/b&gt;&lt;/p&gt;&lt;hr size=&quot;1&quot;&gt;&lt;p style=&quot;margin: 0px ; margin-left: 4px&quot;&gt;+ ADICAO&lt;br&gt;&lt;/p&gt;&lt;p style=&quot;margin: 0px ; margin-left: 4px&quot;&gt;+ SUBTRACAO&lt;br&gt;+ MULTIPLICACAO&lt;/p&gt;&lt;p style=&quot;margin: 0px ; margin-left: 4px&quot;&gt;+ DIVISAO&lt;/p&gt;&lt;p style=&quot;margin: 0px ; margin-left: 4px&quot;&gt;+ MEDIA&lt;/p&gt;&lt;hr size=&quot;1&quot;&gt;&lt;p style=&quot;margin: 0px ; margin-left: 4px&quot;&gt;+ getOperacao():IOperacao&lt;br&gt;&lt;br&gt;&lt;/p&gt;" style="verticalAlign=top;align=left;overflow=fill;fontSize=12;fontFamily=Helvetica;html=1;" parent="WIyWlLk6GJQsqaUBKTNV-1" vertex="1">
          <mxGeometry x="39" y="310" width="190" height="120" as="geometry" />
        </mxCell>
        <mxCell id="xqIVgzkzp9VQpXWk9DUl-22" value="" style="endArrow=open;endFill=1;endSize=12;html=1;rounded=0;exitX=1;exitY=0.5;exitDx=0;exitDy=0;entryX=0;entryY=0.75;entryDx=0;entryDy=0;" parent="WIyWlLk6GJQsqaUBKTNV-1" source="xqIVgzkzp9VQpXWk9DUl-21" target="xqIVgzkzp9VQpXWk9DUl-1" edge="1">
          <mxGeometry width="160" relative="1" as="geometry">
            <mxPoint x="189" y="370" as="sourcePoint" />
            <mxPoint x="349" y="370" as="targetPoint" />
          </mxGeometry>
        </mxCell>
        <mxCell id="xqIVgzkzp9VQpXWk9DUl-28" value="&lt;p style=&quot;margin: 0px ; margin-top: 4px ; text-align: center&quot;&gt;&lt;i&gt;&amp;lt;&amp;lt;@&lt;/i&gt;&lt;i style=&quot;border-color: var(--border-color);&quot;&gt;ApplicationScoped&lt;/i&gt;&lt;i&gt;&amp;gt;&amp;gt;&lt;/i&gt;&lt;br&gt;&lt;b&gt;Subtracao&lt;/b&gt;&lt;/p&gt;&lt;hr size=&quot;1&quot;&gt;&lt;p style=&quot;margin: 0px ; margin-left: 4px&quot;&gt;&lt;/p&gt;&lt;p style=&quot;margin: 0px ; margin-left: 4px&quot;&gt;&lt;i style=&quot;border-color: var(--border-color);&quot;&gt;+ calcule(double a, double b): double&lt;/i&gt;&lt;br&gt;&lt;/p&gt;" style="verticalAlign=top;align=left;overflow=fill;fontSize=12;fontFamily=Helvetica;html=1;" parent="WIyWlLk6GJQsqaUBKTNV-1" vertex="1">
          <mxGeometry x="640" y="410" width="211" height="70" as="geometry" />
        </mxCell>
        <mxCell id="xqIVgzkzp9VQpXWk9DUl-31" value="" style="endArrow=block;dashed=1;endFill=0;endSize=12;html=1;rounded=0;exitX=1.007;exitY=0.603;exitDx=0;exitDy=0;exitPerimeter=0;entryX=0;entryY=0.5;entryDx=0;entryDy=0;" parent="WIyWlLk6GJQsqaUBKTNV-1" source="xqIVgzkzp9VQpXWk9DUl-1" target="xqIVgzkzp9VQpXWk9DUl-28" edge="1">
          <mxGeometry width="160" relative="1" as="geometry">
            <mxPoint x="529.0000000000001" y="373.56999999999994" as="sourcePoint" />
            <mxPoint x="608.65" y="480" as="targetPoint" />
          </mxGeometry>
        </mxCell>
        <mxCell id="xqIVgzkzp9VQpXWk9DUl-32" value="&lt;p style=&quot;margin: 0px ; margin-top: 4px ; text-align: center&quot;&gt;&lt;i&gt;&amp;lt;&amp;lt;&lt;/i&gt;&lt;i style=&quot;border-color: var(--border-color);&quot;&gt;@ApplicationScoped&lt;/i&gt;&lt;i&gt;&amp;gt;&amp;gt;&lt;/i&gt;&lt;br&gt;&lt;b&gt;Media&lt;/b&gt;&lt;/p&gt;&lt;hr size=&quot;1&quot;&gt;&lt;p style=&quot;margin: 0px ; margin-left: 4px&quot;&gt;&lt;/p&gt;&lt;p style=&quot;margin: 0px ; margin-left: 4px&quot;&gt;&lt;i style=&quot;border-color: var(--border-color);&quot;&gt;+ calcule(double a, double b): double&lt;/i&gt;&lt;br&gt;&lt;/p&gt;" style="verticalAlign=top;align=left;overflow=fill;fontSize=12;fontFamily=Helvetica;html=1;" parent="WIyWlLk6GJQsqaUBKTNV-1" vertex="1">
          <mxGeometry x="30" y="510" width="220" height="70" as="geometry" />
        </mxCell>
        <mxCell id="xqIVgzkzp9VQpXWk9DUl-34" value="" style="endArrow=block;dashed=1;endFill=0;endSize=12;html=1;rounded=0;exitX=0.071;exitY=1.026;exitDx=0;exitDy=0;entryX=0.711;entryY=-0.003;entryDx=0;entryDy=0;entryPerimeter=0;exitPerimeter=0;" parent="WIyWlLk6GJQsqaUBKTNV-1" source="xqIVgzkzp9VQpXWk9DUl-1" target="xqIVgzkzp9VQpXWk9DUl-32" edge="1">
          <mxGeometry width="160" relative="1" as="geometry">
            <mxPoint x="411.5" y="400" as="sourcePoint" />
            <mxPoint x="405.8103448275863" y="510" as="targetPoint" />
          </mxGeometry>
        </mxCell>
        <mxCell id="Xh-gv8VB3g_KCWINI_Pc-3" style="edgeStyle=orthogonalEdgeStyle;rounded=0;orthogonalLoop=1;jettySize=auto;html=1;exitX=0.75;exitY=1;exitDx=0;exitDy=0;" parent="WIyWlLk6GJQsqaUBKTNV-1" source="Xh-gv8VB3g_KCWINI_Pc-1" target="xqIVgzkzp9VQpXWk9DUl-1" edge="1">
          <mxGeometry relative="1" as="geometry" />
        </mxCell>
        <mxCell id="Xh-gv8VB3g_KCWINI_Pc-1" value="&lt;p style=&quot;margin:0px;margin-top:4px;text-align:center;&quot;&gt;&lt;b&gt;CalculadoraService&lt;/b&gt;&lt;/p&gt;&lt;hr size=&quot;1&quot;&gt;&lt;p style=&quot;margin:0px;margin-left:4px;&quot;&gt;+ adicao:Adicao&lt;/p&gt;&lt;p style=&quot;margin:0px;margin-left:4px;&quot;&gt;+ subtracao: Subtracao&lt;/p&gt;&lt;p style=&quot;margin:0px;margin-left:4px;&quot;&gt;+ multiplicacao: Multiplicacao&lt;/p&gt;&lt;p style=&quot;margin:0px;margin-left:4px;&quot;&gt;+ divisao : Divisao&lt;br&gt;+ media : Media&lt;/p&gt;&lt;hr size=&quot;1&quot;&gt;&lt;p style=&quot;margin:0px;margin-left:4px;&quot;&gt;+ adicao(valorA, valorB): double&lt;/p&gt;&lt;p style=&quot;margin:0px;margin-left:4px;&quot;&gt;+ subtracao(valorA, valorB): double&lt;br&gt;&lt;/p&gt;&lt;p style=&quot;margin:0px;margin-left:4px;&quot;&gt;+ multiplicacao(valorA, valorB): double&lt;br&gt;&lt;/p&gt;&lt;p style=&quot;margin:0px;margin-left:4px;&quot;&gt;+ divisao(valorA, valorB): double&lt;br&gt;&lt;/p&gt;&lt;p style=&quot;margin:0px;margin-left:4px;&quot;&gt;+ media(valorA, valorB): double&lt;br&gt;&lt;/p&gt;&lt;p style=&quot;margin:0px;margin-left:4px;&quot;&gt;+ mediaModulo11(valorA, valorB): double&lt;br&gt;&lt;/p&gt;" style="verticalAlign=top;align=left;overflow=fill;fontSize=12;fontFamily=Helvetica;html=1;whiteSpace=wrap;" parent="WIyWlLk6GJQsqaUBKTNV-1" vertex="1">
          <mxGeometry x="58.5" y="20" width="291" height="210" as="geometry" />
        </mxCell>
        <mxCell id="Xh-gv8VB3g_KCWINI_Pc-4" style="edgeStyle=orthogonalEdgeStyle;rounded=0;orthogonalLoop=1;jettySize=auto;html=1;exitX=0;exitY=0.5;exitDx=0;exitDy=0;" parent="WIyWlLk6GJQsqaUBKTNV-1" source="Xh-gv8VB3g_KCWINI_Pc-2" target="Xh-gv8VB3g_KCWINI_Pc-1" edge="1">
          <mxGeometry relative="1" as="geometry" />
        </mxCell>
        <mxCell id="Xh-gv8VB3g_KCWINI_Pc-2" value="&lt;p style=&quot;margin:0px;margin-top:4px;text-align:center;&quot;&gt;&lt;b&gt;CalculadoraResource&lt;/b&gt;&lt;/p&gt;&lt;hr size=&quot;1&quot;&gt;&lt;p style=&quot;margin:0px;margin-left:4px;&quot;&gt;+ calculadoraService:CalculadoraService&lt;br&gt;&lt;/p&gt;&lt;hr size=&quot;1&quot;&gt;&lt;p style=&quot;margin:0px;margin-left:4px;&quot;&gt;+ adicao(valorA, valorB): double&lt;/p&gt;&lt;p style=&quot;margin:0px;margin-left:4px;&quot;&gt;+ subtracao(valorA, valorB): double&lt;br&gt;&lt;/p&gt;&lt;p style=&quot;margin:0px;margin-left:4px;&quot;&gt;+ multiplicacao(valorA, valorB): double&lt;br&gt;&lt;/p&gt;&lt;p style=&quot;margin:0px;margin-left:4px;&quot;&gt;+ divisao(valorA, valorB): double&lt;br&gt;&lt;/p&gt;&lt;p style=&quot;margin:0px;margin-left:4px;&quot;&gt;+ media(valorA, valorB): double&lt;br&gt;&lt;/p&gt;&lt;p style=&quot;margin:0px;margin-left:4px;&quot;&gt;+ mediaModulo11(valorA, valorB): double&lt;br&gt;&lt;/p&gt;" style="verticalAlign=top;align=left;overflow=fill;fontSize=12;fontFamily=Helvetica;html=1;whiteSpace=wrap;" parent="WIyWlLk6GJQsqaUBKTNV-1" vertex="1">
          <mxGeometry x="438.5" y="20" width="291" height="210" as="geometry" />
        </mxCell>
      </root>
    </mxGraphModel>
  </diagram>
</mxfile>
